<svg xmlns="http://www.w3.org/2000/svg" width="860" height="190" viewBox="0 0 860 190">
<rect width="860" height="190" rx="12" fill="#0d1117"/>
<text x="24" y="30" fill="#c9d1d9" font-family="monospace" font-size="16">contribution activity / last 12 weeks</text>
<g transform="translate(24 52)">
<g fill="#161b22">
<rect x="0" y="0" width="14" height="14"/><rect x="0" y="20" width="14" height="14"/><rect x="0" y="40" width="14" height="14"/><rect x="0" y="60" width="14" height="14"/><rect x="0" y="80" width="14" height="14"/>
</g>
<g fill="#0e4429">
<rect x="20" y="0" width="14" height="14"/><rect x="40" y="20" width="14" height="14"/><rect x="60" y="40" width="14" height="14"/><rect x="80" y="60" width="14" height="14"/><rect x="100" y="80" width="14" height="14"/>
<rect x="140" y="0" width="14" height="14"/><rect x="160" y="20" width="14" height="14"/><rect x="180" y="40" width="14" height="14"/><rect x="200" y="60" width="14" height="14"/><rect x="220" y="80" width="14" height="14"/>
<rect x="280" y="0" width="14" height="14"/><rect x="300" y="20" width="14" height="14"/><rect x="320" y="40" width="14" height="14"/><rect x="340" y="60" width="14" height="14"/><rect x="360" y="80" width="14" height="14"/>
<rect x="420" y="0" width="14" height="14"/><rect x="440" y="20" width="14" height="14"/><rect x="460" y="40" width="14" height="14"/><rect x="480" y="60" width="14" height="14"/><rect x="500" y="80" width="14" height="14"/>
<rect x="560" y="0" width="14" height="14"/><rect x="580" y="20" width="14" height="14"/><rect x="600" y="40" width="14" height="14"/><rect x="620" y="60" width="14" height="14"/><rect x="640" y="80" width="14" height="14"/>
<rect x="700" y="0" width="14" height="14"/><rect x="720" y="20" width="14" height="14"/><rect x="740" y="40" width="14" height="14"/><rect x="760" y="60" width="14" height="14"/><rect x="780" y="80" width="14" height="14"/>
</g>
<g fill="#26a641"><rect x="100" y="0" width="14" height="14"/><rect x="240" y="20" width="14" height="14"/><rect x="380" y="40" width="14" height="14"/><rect x="520" y="60" width="14" height="14"/><rect x="660" y="80" width="14" height="14"/></g>
<g fill="#39d353"><rect x="120" y="20" width="14" height="14"/><rect x="260" y="40" width="14" height="14"/><rect x="400" y="60" width="14" height="14"/><rect x="540" y="80" width="14" height="14"/></g>
<rect x="0" y="0" width="14" height="14" fill="#69f0a0"><animate attributeName="opacity" values="0.35;1;0.35" dur="2s" repeatCount="indefinite"/></rect>
</g>
<text x="24" y="170" fill="#8b949e" font-family="monospace" font-size="13">less  [ ] [ ] [ ] [ ]  more</text>
</svg>  
